<svg width="367" height="367" viewBox="0 0 367 367" fill="none" xmlns="http://www.w3.org/2000/svg">
<circle cx="183.284" cy="183.284" r="183.284" fill="#E9FF6C"/>
<path d="M189.391 157.845C190.859 153.095 191.636 148 191.636 142.818C191.636 114.232 168.405 91 139.818 91C111.232 91 88 114.232 88 142.818C88 171.405 111.232 194.636 139.818 194.636C147.418 194.636 154.673 192.995 161.15 190.059L165.727 194.636V220.545H191.636V246.455H217.545V263.727L234.818 281H278V246.455L189.391 157.845ZM131.182 151.455C121.682 151.455 113.909 143.682 113.909 134.182C113.909 124.682 121.682 116.909 131.182 116.909C140.682 116.909 148.455 124.682 148.455 134.182C148.455 143.682 140.682 151.455 131.182 151.455Z" fill="#313131"/>
</svg>
