<svg width="367" height="367" viewBox="0 0 367 367" fill="none" xmlns="http://www.w3.org/2000/svg">
<circle cx="183.284" cy="183.284" r="183.284" fill="#E9FF6C"/>
<path fill-rule="evenodd" clip-rule="evenodd" d="M155.233 132.512C172.882 123.089 198.509 121.529 217.876 127.066C227.497 129.816 233.493 133.733 236.335 137.136C238.423 139.636 239.3 142.176 237.746 146.699C237.777 146.609 237.764 146.626 237.673 146.746C237.283 147.258 235.466 149.645 229.609 153.424C223.178 157.573 214.417 161.799 204.372 165.912C194.114 170.112 183.406 173.851 173.602 177.096C171.7 177.59 169.844 178.199 168.044 178.918C165.073 179.882 162.218 180.797 159.522 181.661C155.592 182.921 151.994 184.074 148.87 185.114C137.123 189.025 134.973 200.13 134.583 203.832C134.051 208.888 134.919 213.995 136.253 218.411C138.998 227.501 144.938 237.713 154.412 246.335C170.977 261.41 200.151 276.533 238.293 268.176C263.907 262.564 291.334 242.509 303.231 209.324C303.306 209.115 303.196 208.882 302.985 208.81L269.784 197.429C269.576 197.358 269.349 197.47 269.275 197.676C261.666 218.751 244.515 230.553 230.48 233.628C207.217 238.725 189.897 230.096 179.552 220.999C179.536 220.986 179.522 220.97 179.508 220.954C178.138 219.293 177.676 218.028 177.516 217.302C177.337 216.496 177.411 215.845 177.625 215.256C177.961 214.33 178.915 213.002 180.78 212.059C180.797 212.05 180.816 212.043 180.835 212.036C192.202 208.321 205.633 203.728 218.182 198.591C229.09 194.125 240.186 188.919 249.322 183.025C257.665 177.642 267.86 169.533 271.809 158.039C277.412 141.735 273.955 126.445 264.114 114.661C255.027 103.781 241.502 96.9633 227.905 93.0765C200.838 85.3391 165.249 86.8998 138.088 101.4C103.323 119.96 90.5241 160.555 85.5121 194.481C82.0877 217.661 81.8469 240.946 82.3778 258.892C82.3827 259.058 82.4899 259.201 82.647 259.256L118.358 271.573C118.626 271.665 118.903 271.463 118.888 271.179C117.934 253.402 117.172 226.143 121.097 199.574C125.903 167.043 136.751 142.379 155.233 132.512Z" fill="#313131"/>
</svg>
